<mxfile host="app.diagrams.net" modified="2024-02-23T21:53:08.067Z" agent="Mozilla/5.0 (Windows NT 10.0; Win64; x64) AppleWebKit/537.36 (KHTML, like Gecko) Chrome/122.0.0.0 Safari/537.36" etag="IKE5Dwmwkv-hfQ4nMuQX" version="23.1.6" type="google">
  <diagram name="Page-1" id="9Z_W_5t_fnRGTTbJc7b7">
    <mxGraphModel dx="1050" dy="522" grid="1" gridSize="10" guides="1" tooltips="1" connect="1" arrows="1" fold="1" page="1" pageScale="1" pageWidth="827" pageHeight="1169" math="0" shadow="0">
      <root>
        <mxCell id="0" />
        <mxCell id="1" parent="0" />
        <mxCell id="vYdw9N9ly6--Ky2GH8_B-1" value="" style="rounded=0;whiteSpace=wrap;html=1;hachureGap=4;fillColor=#fad9d5;strokeColor=#ae4132;" vertex="1" parent="1">
          <mxGeometry x="20" y="130" width="780" height="500" as="geometry" />
        </mxCell>
        <mxCell id="vYdw9N9ly6--Ky2GH8_B-8" value="" style="image;aspect=fixed;html=1;points=[];align=center;fontSize=12;image=img/lib/azure2/identity/Users.svg;" vertex="1" parent="1">
          <mxGeometry x="40" y="455" width="36.57" height="40" as="geometry" />
        </mxCell>
        <mxCell id="vYdw9N9ly6--Ky2GH8_B-9" value="" style="rounded=0;whiteSpace=wrap;html=1;fillColor=#fff2cc;strokeColor=#FF3333;resizeHeight=0;imageAspect=1;" vertex="1" parent="1">
          <mxGeometry x="180" y="180" width="600" height="430" as="geometry" />
        </mxCell>
        <mxCell id="vYdw9N9ly6--Ky2GH8_B-10" value="&lt;b&gt;LB-2&lt;/b&gt;" style="image;sketch=0;aspect=fixed;html=1;points=[];align=center;fontSize=12;image=img/lib/mscae/Load_Balancer_feature.svg;" vertex="1" parent="1">
          <mxGeometry x="350" y="490" width="50" height="50" as="geometry" />
        </mxCell>
        <mxCell id="vYdw9N9ly6--Ky2GH8_B-11" value="&lt;b&gt;LB-1&lt;/b&gt;" style="image;sketch=0;aspect=fixed;html=1;points=[];align=center;fontSize=12;image=img/lib/mscae/Load_Balancer_feature.svg;" vertex="1" parent="1">
          <mxGeometry x="350" y="200" width="50" height="50" as="geometry" />
        </mxCell>
        <mxCell id="vYdw9N9ly6--Ky2GH8_B-12" value="192.162.10.13" style="rounded=1;whiteSpace=wrap;html=1;fillColor=#ffff88;strokeColor=#36393d;" vertex="1" parent="1">
          <mxGeometry x="120" y="365" width="120" height="30" as="geometry" />
        </mxCell>
        <mxCell id="vYdw9N9ly6--Ky2GH8_B-14" value="" style="shape=image;html=1;verticalAlign=top;verticalLabelPosition=bottom;labelBackgroundColor=#ffffff;imageAspect=0;aspect=fixed;image=https://cdn2.iconfinder.com/data/icons/whcompare-isometric-web-hosting-servers/50/web-browser-on-laptop-128.png" vertex="1" parent="1">
          <mxGeometry x="670" y="180" width="58" height="58" as="geometry" />
        </mxCell>
        <mxCell id="vYdw9N9ly6--Ky2GH8_B-15" value="" style="shape=image;html=1;verticalAlign=top;verticalLabelPosition=bottom;labelBackgroundColor=#ffffff;imageAspect=0;aspect=fixed;image=https://cdn2.iconfinder.com/data/icons/whcompare-isometric-web-hosting-servers/50/web-browser-on-laptop-128.png" vertex="1" parent="1">
          <mxGeometry x="670" y="482" width="58" height="58" as="geometry" />
        </mxCell>
        <mxCell id="vYdw9N9ly6--Ky2GH8_B-20" value="" style="endArrow=classic;html=1;rounded=0;entryX=0.25;entryY=1;entryDx=0;entryDy=0;exitX=0.848;exitY=0.028;exitDx=0;exitDy=0;exitPerimeter=0;strokeColor=#00FF00;flowAnimation=1;" edge="1" parent="1" source="vYdw9N9ly6--Ky2GH8_B-10" target="vYdw9N9ly6--Ky2GH8_B-14">
          <mxGeometry width="50" height="50" relative="1" as="geometry">
            <mxPoint x="400" y="490" as="sourcePoint" />
            <mxPoint x="650" y="259" as="targetPoint" />
            <Array as="points">
              <mxPoint x="520" y="280" />
            </Array>
          </mxGeometry>
        </mxCell>
        <mxCell id="vYdw9N9ly6--Ky2GH8_B-21" value="" style="endArrow=classic;html=1;rounded=0;exitX=0.816;exitY=0.96;exitDx=0;exitDy=0;exitPerimeter=0;entryX=0;entryY=1;entryDx=0;entryDy=0;fillColor=#cdeb8b;strokeColor=#00FF00;flowAnimation=1;" edge="1" parent="1" source="vYdw9N9ly6--Ky2GH8_B-10" target="vYdw9N9ly6--Ky2GH8_B-15">
          <mxGeometry width="50" height="50" relative="1" as="geometry">
            <mxPoint x="390" y="400" as="sourcePoint" />
            <mxPoint x="440" y="350" as="targetPoint" />
          </mxGeometry>
        </mxCell>
        <mxCell id="vYdw9N9ly6--Ky2GH8_B-23" value="" style="endArrow=classic;html=1;rounded=0;exitX=1;exitY=1;exitDx=0;exitDy=0;strokeColor=#00FF00;flowAnimation=1;" edge="1" parent="1" source="vYdw9N9ly6--Ky2GH8_B-12" target="vYdw9N9ly6--Ky2GH8_B-10">
          <mxGeometry width="50" height="50" relative="1" as="geometry">
            <mxPoint x="390" y="400" as="sourcePoint" />
            <mxPoint x="440" y="350" as="targetPoint" />
            <Array as="points">
              <mxPoint x="320" y="420" />
            </Array>
          </mxGeometry>
        </mxCell>
        <mxCell id="vYdw9N9ly6--Ky2GH8_B-24" value="" style="endArrow=classic;html=1;rounded=0;entryX=0;entryY=0.5;entryDx=0;entryDy=0;strokeColor=#00FF00;flowAnimation=1;" edge="1" parent="1" source="vYdw9N9ly6--Ky2GH8_B-8" target="vYdw9N9ly6--Ky2GH8_B-12">
          <mxGeometry width="50" height="50" relative="1" as="geometry">
            <mxPoint x="390" y="400" as="sourcePoint" />
            <mxPoint x="440" y="350" as="targetPoint" />
            <Array as="points">
              <mxPoint x="58" y="380" />
            </Array>
          </mxGeometry>
        </mxCell>
        <mxCell id="vYdw9N9ly6--Ky2GH8_B-25" value="" style="endArrow=classic;html=1;rounded=0;exitX=1;exitY=0;exitDx=0;exitDy=0;entryX=0.56;entryY=1.016;entryDx=0;entryDy=0;entryPerimeter=0;strokeColor=#FF3333;" edge="1" parent="1" source="vYdw9N9ly6--Ky2GH8_B-12" target="vYdw9N9ly6--Ky2GH8_B-11">
          <mxGeometry width="50" height="50" relative="1" as="geometry">
            <mxPoint x="390" y="400" as="sourcePoint" />
            <mxPoint x="440" y="350" as="targetPoint" />
            <Array as="points">
              <mxPoint x="330" y="340" />
            </Array>
          </mxGeometry>
        </mxCell>
        <mxCell id="vYdw9N9ly6--Ky2GH8_B-26" value="" style="endArrow=classic;html=1;rounded=0;strokeColor=#FF3333;" edge="1" parent="1" target="vYdw9N9ly6--Ky2GH8_B-14">
          <mxGeometry width="50" height="50" relative="1" as="geometry">
            <mxPoint x="390" y="210" as="sourcePoint" />
            <mxPoint x="440" y="350" as="targetPoint" />
          </mxGeometry>
        </mxCell>
        <mxCell id="vYdw9N9ly6--Ky2GH8_B-27" value="" style="endArrow=classic;html=1;rounded=0;exitX=1.024;exitY=0.76;exitDx=0;exitDy=0;exitPerimeter=0;strokeColor=#FF3333;" edge="1" parent="1">
          <mxGeometry relative="1" as="geometry">
            <mxPoint x="402.20000000000005" y="238" as="sourcePoint" />
            <mxPoint x="671" y="484.4150436534587" as="targetPoint" />
          </mxGeometry>
        </mxCell>
      </root>
    </mxGraphModel>
  </diagram>
</mxfile>
